<svg fill="#000000" width="24px" height="24px" viewBox="-0.105 -0.06 0.72 0.72" xmlns="http://www.w3.org/2000/svg" preserveAspectRatio="xMinYMin" class="jam jam-apple">
    <path d="M0.409 0.319c-0.001 -0.076 0.062 -0.112 0.065 -0.114 -0.035 -0.052 -0.09 -0.059 -0.11 -0.059 -0.047 -0.005 -0.091 0.028 -0.115 0.028 -0.024 0 -0.06 -0.027 -0.099 -0.026C0.099 0.147 0.052 0.176 0.026 0.222c-0.053 0.092 -0.014 0.228 0.038 0.302 0.025 0.036 0.055 0.077 0.095 0.076 0.038 -0.002 0.052 -0.025 0.098 -0.025 0.046 0 0.059 0.025 0.099 0.024 0.041 -0.001 0.067 -0.037 0.092 -0.074 0.029 -0.042 0.041 -0.083 0.042 -0.085 -0.001 0 -0.08 -0.031 -0.081 -0.121zm-0.076 -0.223c0.021 -0.025 0.035 -0.061 0.031 -0.096C0.334 0.001 0.298 0.02 0.276 0.045c-0.019 0.022 -0.036 0.058 -0.032 0.093 0.034 0.003 0.068 -0.017 0.089 -0.042z"/>
</svg>
