<svg width="24px" height="24px" viewBox="0 0 0.48 0.48" version="1.1" xmlns="http://www.w3.org/2000/svg" xmlns:xlink="http://www.w3.org/1999/xlink">
    <path width="16" height="16" id="icon-bound" fill="none" d="M0 0H0.48V0.48H0V0z"/>
    <path d="M0.18 0.21H0.12v0.06h0.06V0.21zm0 0.09H0.12v0.06h0.06v-0.06zm0.09 -0.09H0.21v0.06h0.06V0.21zm0 0.09H0.21v0.06h0.06v-0.06zm0.09 -0.09h-0.06v0.06h0.06V0.21zm0 0.09h-0.06v0.06h0.06v-0.06zm0.09 -0.24h-0.03v0.06h-0.09V0.06H0.15v0.06H0.06V0.06H0.03a0.03 0.03 0 0 0 -0.03 0.03v0.33a0.03 0.03 0 0 0 0.03 0.03h0.42a0.03 0.03 0 0 0 0.03 -0.03V0.09a0.03 0.03 0 0 0 -0.03 -0.03zm-0.03 0.33H0.06V0.18h0.36v0.21zM0.12 0.015A0.015 0.015 0 0 0 0.105 0h0A0.015 0.015 0 0 0 0.09 0.015V0.09h0.03V0.015zm0.27 0A0.015 0.015 0 0 0 0.375 0h0A0.015 0.015 0 0 0 0.36 0.015V0.09h0.03V0.015z"/>
</svg>
