<svg fill="#000000" xmlns="http://www.w3.org/2000/svg" width="24px" height="24px" viewBox="0 0 1.56 1.56" enable-background="new 0 0 52 52" xml:space="preserve">
  <g>
    <path d="M0.78 0.6c-0.132 0 -0.24 0.108 -0.24 0.24s0.108 0.24 0.24 0.24 0.24 -0.108 0.24 -0.24 -0.108 -0.24 -0.24 -0.24z"/>
      <path d="M1.38 0.42h-0.156c-0.042 0 -0.078 -0.021 -0.102 -0.054l-0.069 -0.105C1.032 0.21 0.981 0.18 0.927 0.18h-0.294c-0.054 0 -0.105 0.03 -0.129 0.081l-0.069 0.105c-0.021 0.033 -0.06 0.054 -0.102 0.054H0.18c-0.066 0 -0.12 0.054 -0.12 0.12v0.72c0 0.066 0.054 0.12 0.12 0.12h1.2c0.066 0 0.12 -0.054 0.12 -0.12V0.54c0 -0.066 -0.054 -0.12 -0.12 -0.12zM0.78 1.2c-0.198 0 -0.36 -0.162 -0.36 -0.36s0.162 -0.36 0.36 -0.36 0.36 0.162 0.36 0.36 -0.162 0.36 -0.36 0.36z"/>
  </g>
</svg>
