<svg width="24px" height="24px" viewBox="0 0 0.72 0.72" fill="none" xmlns="http://www.w3.org/2000/svg">
    <path fill-rule="evenodd" clip-rule="evenodd" d="M0.66 0.36c0 0.166 -0.134 0.3 -0.3 0.3S0.06 0.526 0.06 0.36 0.194 0.06 0.36 0.06s0.3 0.134 0.3 0.3zm-0.06 0a0.24 0.24 0 1 1 -0.48 0 0.24 0.24 0 0 1 0.48 0zM0.233 0.275a0.03 0.03 0 1 1 0.042 -0.042L0.36 0.318l0.085 -0.085a0.03 0.03 0 1 1 0.042 0.042L0.402 0.36l0.085 0.085a0.03 0.03 0 1 1 -0.042 0.042L0.36 0.402l-0.085 0.085a0.03 0.03 0 0 1 -0.042 -0.042l0.085 -0.085 -0.085 -0.085z" fill="#000000"/>
</svg>
