<svg version="1.1" id="Capa_1" xmlns="http://www.w3.org/2000/svg" xmlns:xlink="http://www.w3.org/1999/xlink" x="0px" y="0px" width="24px" height="24px" viewBox="0 0 24 24" style="enable-background:new 0 0 378.017 378.016;" xml:space="preserve">
  <g>
    <path d="M22.119 0.011H1.881C0.844 0.011 0 0.855 0 1.892v20.217c0 1.037 0.844 1.88 1.881 1.88H22.119c1.037 0 1.881 -0.844 1.881 -1.88V1.892c0 -1.037 -0.844 -1.881 -1.881 -1.881zm-1.275 2.141c0.445 0 0.806 0.361 0.806 0.806 0 0.445 -0.361 0.806 -0.806 0.806 -0.445 0 -0.806 -0.361 -0.806 -0.806 0 -0.445 0.361 -0.806 0.806 -0.806zm-2.888 0c0.445 0 0.807 0.361 0.807 0.806 0 0.445 -0.361 0.806 -0.807 0.806 -0.445 0 -0.806 -0.361 -0.806 -0.806 0 -0.445 0.361 -0.806 0.806 -0.806zm3.894 19.688h-19.701V5.765h19.701v16.075h0zM11.47 11.777 4.982 14.751v-1.432l5.015 -2.149v-0.027l-5.015 -2.149V7.56l6.488 2.973v1.243zm7.548 2.484H12.259v-0.675h6.759v0.675z"/>
  </g>
</svg>
