<svg width="24px" height="24px" viewBox="0 0 0.48 0.48" xmlns="http://www.w3.org/2000/svg" fill="none">
    <path fill="#1877F2" d="M0.45 0.24a0.21 0.21 0 0 0 -0.21 -0.21 0.21 0.21 0 0 0 -0.033 0.417v-0.147H0.154V0.24h0.053V0.194c0 -0.053 0.031 -0.082 0.079 -0.082 0.023 0 0.047 0.004 0.047 0.004v0.052h-0.026c-0.026 0 -0.034 0.016 -0.034 0.033V0.24h0.058l-0.009 0.061H0.273v0.147A0.21 0.21 0 0 0 0.45 0.24z"/>
    <path fill="#ffffff" d="M0.322 0.301 0.331 0.24H0.273V0.201c0 -0.017 0.008 -0.033 0.034 -0.033h0.026V0.116s-0.024 -0.004 -0.047 -0.004c-0.048 0 -0.079 0.029 -0.079 0.082V0.24H0.154v0.061h0.053v0.147a0.211 0.211 0 0 0 0.066 0v-0.147h0.049z"/>
</svg>
