<svg width="24px" height="24px" viewBox="0 0 0.72 0.72" fill="none" xmlns="http://www.w3.org/2000/svg">
    <path d="M0.12 0.12v0.48a0.06 0.06 0 0 0 0.06 0.06h0.36a0.06 0.06 0 0 0 0.06 -0.06V0.25a0.06 0.06 0 0 0 -0.018 -0.043l-0.133 -0.13A0.06 0.06 0 0 0 0.407 0.06H0.18a0.06 0.06 0 0 0 -0.06 0.06Z" stroke="#000000" stroke-width="0.06" stroke-linecap="round" stroke-linejoin="round"/>
    <path d="M0.27 0.39h0.18" stroke="#000000" stroke-width="0.06" stroke-linecap="round" stroke-linejoin="round"/>
    <path d="M0.27 0.51h0.09" stroke="#000000" stroke-width="0.06" stroke-linecap="round" stroke-linejoin="round"/>
    <path d="M0.42 0.06v0.12a0.06 0.06 0 0 0 0.06 0.06h0.12" stroke="#000000" stroke-width="0.06" stroke-linejoin="round"/>
</svg>
