<svg width="24px" height="24px" viewBox="0 0 0.48 0.48" xmlns="http://www.w3.org/2000/svg" fill="none"><path fill="#4285F4" d="M0.447 0.245c0 -0.014 -0.001 -0.029 -0.004 -0.043h-0.199v0.081h0.114a0.097 0.097 0 0 1 -0.042 0.064v0.052h0.068c0.04 -0.037 0.063 -0.091 0.063 -0.154z"/><path fill="#34A853" d="M0.244 0.45c0.057 0 0.105 -0.019 0.14 -0.051l-0.068 -0.052c-0.019 0.013 -0.043 0.02 -0.072 0.02 -0.055 0 -0.102 -0.037 -0.119 -0.087H0.056v0.054A0.211 0.211 0 0 0 0.244 0.45z"/><path fill="#FBBC04" d="M0.126 0.28a0.125 0.125 0 0 1 0 -0.08V0.146H0.055a0.209 0.209 0 0 0 0 0.189l0.07 -0.054z"/><path fill="#EA4335" d="M0.244 0.113a0.115 0.115 0 0 1 0.081 0.032l0.06 -0.06a0.204 0.204 0 0 0 -0.141 -0.055 0.211 0.211 0 0 0 -0.189 0.116L0.126 0.2c0.017 -0.05 0.063 -0.087 0.119 -0.087z"/></svg>
