<svg fill="#000000" width="24px" height="24px" viewBox="0 0 0.96 0.96" version="1.1" xmlns="http://www.w3.org/2000/svg">
    <title>instagram</title>
    <path d="M0.774 0.24v0a0.054 0.054 0 1 1 -0.054 -0.054 0.054 0.054 0 0 1 0.054 0.054zM0.48 0.63A0.15 0.15 0 1 1 0.63 0.48v0a0.15 0.15 0 0 1 -0.15 0.15h0zM0.48 0.249a0.231 0.231 0 1 0 0.231 0.231v0a0.231 0.231 0 0 0 -0.231 -0.231h0zm0 -0.138c0.12 0 0.134 0.001 0.182 0.003a0.247 0.247 0 0 1 0.085 0.016l-0.002 -0.001a0.149 0.149 0 0 1 0.085 0.084l0 0.001c0.009 0.025 0.015 0.053 0.015 0.083v0c0.002 0.047 0.003 0.062 0.003 0.182s-0.001 0.134 -0.003 0.182a0.253 0.253 0 0 1 -0.016 0.085l0.001 -0.002a0.144 0.144 0 0 1 -0.034 0.052l0 0a0.141 0.141 0 0 1 -0.051 0.033l-0.001 0a0.245 0.245 0 0 1 -0.084 0.015h0c-0.048 0.002 -0.062 0.003 -0.182 0.003 -0.12 0 -0.134 -0.001 -0.182 -0.003a0.255 0.255 0 0 1 -0.086 -0.016l0.002 0.001a0.14 0.14 0 0 1 -0.052 -0.034l0 0a0.137 0.137 0 0 1 -0.033 -0.051l0 -0.001a0.25 0.25 0 0 1 -0.016 -0.084v0c-0.002 -0.047 -0.002 -0.062 -0.002 -0.182 0 -0.12 0.001 -0.134 0.002 -0.182a0.255 0.255 0 0 1 0.016 -0.085l-0.001 0.002a0.134 0.134 0 0 1 0.034 -0.052l0 0a0.133 0.133 0 0 1 0.051 -0.033l0.001 0a0.244 0.244 0 0 1 0.083 -0.016h0c0.048 -0.002 0.062 -0.002 0.182 -0.002zm0 -0.081c-0.122 0 -0.137 0.001 -0.185 0.003a0.331 0.331 0 0 0 -0.111 0.022l0.002 -0.001A0.222 0.222 0 0 0 0.106 0.106l0 0a0.22 0.22 0 0 0 -0.051 0.078l-0.001 0.002a0.324 0.324 0 0 0 -0.021 0.109v0c-0.002 0.048 -0.003 0.063 -0.003 0.185s0.001 0.137 0.003 0.185c0.001 0.039 0.008 0.077 0.022 0.111l-0.001 -0.002a0.231 0.231 0 0 0 0.13 0.131l0.002 0.001c0.032 0.012 0.07 0.02 0.109 0.021h0c0.048 0.002 0.063 0.003 0.185 0.003s0.137 -0.001 0.185 -0.003a0.332 0.332 0 0 0 0.111 -0.022l-0.002 0.001a0.231 0.231 0 0 0 0.131 -0.13l0.001 -0.002c0.012 -0.032 0.02 -0.07 0.021 -0.109v0c0.002 -0.048 0.003 -0.063 0.003 -0.185s-0.001 -0.137 -0.003 -0.185a0.332 0.332 0 0 0 -0.022 -0.111l0.001 0.002a0.222 0.222 0 0 0 -0.052 -0.08l0 0a0.22 0.22 0 0 0 -0.078 -0.051l-0.002 -0.001a0.324 0.324 0 0 0 -0.109 -0.021h0c-0.048 -0.002 -0.063 -0.003 -0.185 -0.003z"/>
</svg>
