<svg width="24px" height="24px" viewBox="0 0 0.72 0.72" fill="none" xmlns="http://www.w3.org/2000/svg">
  <path d="M0.12 0.21a0.03 0.03 0 0 1 0.03 -0.03h0.03a0.03 0.03 0 0 1 0 0.06H0.15a0.03 0.03 0 0 1 -0.03 -0.03zm0.15 0a0.03 0.03 0 0 1 0.03 -0.03h0.27a0.03 0.03 0 1 1 0 0.06h-0.27a0.03 0.03 0 0 1 -0.03 -0.03zm-0.15 0.15a0.03 0.03 0 0 1 0.03 -0.03h0.03a0.03 0.03 0 1 1 0 0.06H0.15a0.03 0.03 0 0 1 -0.03 -0.03zm0.15 0a0.03 0.03 0 0 1 0.03 -0.03h0.27a0.03 0.03 0 1 1 0 0.06h-0.27a0.03 0.03 0 0 1 -0.03 -0.03zm-0.15 0.15a0.03 0.03 0 0 1 0.03 -0.03h0.03a0.03 0.03 0 1 1 0 0.06H0.15a0.03 0.03 0 0 1 -0.03 -0.03zm0.15 0a0.03 0.03 0 0 1 0.03 -0.03h0.27a0.03 0.03 0 1 1 0 0.06h-0.27a0.03 0.03 0 0 1 -0.03 -0.03z" fill="currentColor"/>
</svg>
