<svg fill="#000000" width="24px" height="24px" viewBox="0 0 0.72 0.72" xmlns="http://www.w3.org/2000/svg">
    <path fill-rule="evenodd" d="m0.38 0.683 -0.02 0.017 -0.02 -0.017C0.174 0.538 0.09 0.411 0.09 0.3c0 -0.158 0.123 -0.27 0.27 -0.27s0.27 0.112 0.27 0.27c0 0.111 -0.084 0.238 -0.25 0.383ZM0.15 0.3c0 0.085 0.069 0.193 0.21 0.32 0.141 -0.127 0.21 -0.234 0.21 -0.32 0 -0.123 -0.095 -0.21 -0.21 -0.21s-0.21 0.087 -0.21 0.21Zm0.21 -0.15a0.15 0.15 0 1 1 0 0.3 0.15 0.15 0 0 1 0 -0.3Zm0 0.06a0.09 0.09 0 1 0 0 0.18 0.09 0.09 0 0 0 0 -0.18Z"/>
</svg>
