<svg width="24px" height="24px" viewBox="0 0 0.48 0.48" version="1.1" xmlns="http://www.w3.org/2000/svg" xmlns:xlink="http://www.w3.org/1999/xlink">
    <path width="16" height="16" id="icon-bound" fill="none" d="M0 0H0.48V0.48H0V0z"/>
    <path d="M0.42 0.21h-0.03V0.12c0 -0.066 -0.054 -0.12 -0.12 -0.12H0.21C0.144 0 0.09 0.054 0.09 0.12v0.09H0.06c-0.017 0 -0.03 0.013 -0.03 0.03v0.21c0 0.017 0.013 0.03 0.03 0.03h0.36c0.017 0 0.03 -0.013 0.03 -0.03V0.24c0 -0.017 -0.013 -0.03 -0.03 -0.03zm-0.15 0.172v0.023c0 0.017 -0.013 0.03 -0.03 0.03s-0.03 -0.013 -0.03 -0.03v-0.023a0.06 0.06 0 1 1 0.06 0zM0.15 0.21V0.12c0 -0.033 0.027 -0.06 0.06 -0.06h0.06c0.033 0 0.06 0.027 0.06 0.06v0.09H0.15z"/>
</svg>
