<svg version="1.1" id="Capa_1" xmlns="http://www.w3.org/2000/svg" xmlns:xlink="http://www.w3.org/1999/xlink" x="0px" y="0px" viewBox="0 0 24 24" style="enable-background:new 0 0 512 512;" xml:space="preserve" width="24" height="24">
  <g>
    <path d="m23.341 20.159 -5.949 -5.949C18.248 12.796 18.75 11.145 18.75 9.375 18.75 4.206 14.544 0 9.375 0S0 4.206 0 9.375s4.206 9.375 9.375 9.375c1.77 0 3.421 -0.502 4.835 -1.358l5.949 5.949C20.599 23.78 21.174 24 21.75 24c0.576 0 1.151 -0.22 1.591 -0.659 0.879 -0.879 0.879 -2.303 0 -3.182zM3 9.375c0 -3.515 2.86 -6.375 6.375 -6.375s6.375 2.86 6.375 6.375 -2.86 6.375 -6.375 6.375S3 12.89 3 9.375z"/>
  </g>
</svg>
