<svg fill="#000000" height="24px" width="24px" version="1.1" id="Icons" xmlns="http://www.w3.org/2000/svg" xmlns:xlink="http://www.w3.org/1999/xlink" viewBox="0 0 0.96 0.96" xml:space="preserve">
  <g>
    <path d="M0.87 0.24H0.09c-0.018 0 -0.03 0.012 -0.03 0.03v0.42c0 0.018 0.012 0.03 0.03 0.03h0.78c0.018 0 0.03 -0.012 0.03 -0.03V0.27c0 -0.018 -0.012 -0.03 -0.03 -0.03zm-0.147 0.42H0.237C0.225 0.6 0.18 0.555 0.12 0.543v-0.126c0.06 -0.012 0.105 -0.057 0.117 -0.117h0.486c0.012 0.06 0.057 0.105 0.117 0.117v0.126c-0.06 0.012 -0.105 0.057 -0.117 0.117z"/>
      <path d="M0.48 0.33c-0.066 0 -0.12 0.066 -0.12 0.15s0.054 0.15 0.12 0.15 0.12 -0.066 0.12 -0.15 -0.054 -0.15 -0.12 -0.15z"/>
  </g>
</svg>
