<svg fill="#000000" width="24px" height="24px" viewBox="0 0 0.72 0.72" xmlns="http://www.w3.org/2000/svg">
  <path fill-rule="evenodd" d="M0.57 0.06a0.09 0.09 0 0 1 0.09 0.09v0.42a0.09 0.09 0 0 1 -0.09 0.09H0.15a0.09 0.09 0 0 1 -0.09 -0.09V0.15a0.09 0.09 0 0 1 0.09 -0.09h0.42Zm0.03 0.309 -0.125 0.188a0.03 0.03 0 0 1 -0.041 0.008l-0.003 -0.002 -0.155 -0.129L0.157 0.6H0.57a0.03 0.03 0 0 0 0.03 -0.03v-0.201ZM0.57 0.12H0.15a0.03 0.03 0 0 0 -0.03 0.03v0.398l0.126 -0.176a0.03 0.03 0 0 1 0.041 -0.008l0.003 0.002 0.154 0.129L0.6 0.261V0.15a0.03 0.03 0 0 0 -0.03 -0.03ZM0.24 0.18a0.06 0.06 0 1 1 0 0.12 0.06 0.06 0 0 1 0 -0.12Z"/>
</svg>
