<svg fill="#000000" width="24px" height="24px" viewBox="0 0 1.56 1.56" data-name="Layer 1" xmlns="http://www.w3.org/2000/svg">
    <g>
        <path d="m0.75 0.069 0.351 0.006a0.165 0.165 0 0 1 0.075 0.03l0.138 0.138 0.138 0.138a0.106 0.106 0 0 1 0.03 0.075l0.009 0.354a0.106 0.106 0 0 1 -0.03 0.075L0.885 1.461a0.111 0.111 0 0 1 -0.15 0L0.417 1.143 0.099 0.825a0.111 0.111 0 0 1 0 -0.15L0.675 0.099a0.106 0.106 0 0 1 0.075 -0.03ZM0.558 0.63l-0.057 0.054a0.025 0.025 0 0 0 0 0.039l0.336 0.336a0.025 0.025 0 0 0 0.039 0l0.057 -0.057a0.025 0.025 0 0 0 0 -0.039L0.591 0.63a0.019 0.019 0 0 0 -0.033 0Zm0.159 -0.162L0.66 0.525a0.025 0.025 0 0 0 0 0.039L0.996 0.9a0.025 0.025 0 0 0 0.039 0l0.057 -0.057a0.025 0.025 0 0 0 0 -0.039L0.753 0.468a0.027 0.027 0 0 0 -0.036 0ZM1.26 0.3a0.111 0.111 0 0 0 -0.15 0 0.111 0.111 0 0 0 0 0.15 0.111 0.111 0 0 0 0.15 0 0.111 0.111 0 0 0 0 -0.15Z"/>
    </g>
</svg>
