<svg width="24px" height="24px" viewBox="3 6.78 24 24" xmlns="http://www.w3.org/2000/svg" xmlns:xlink="http://www.w3.org/1999/xlink" version="1.1">
    <path fill="#000000" d="M3 6.78v11.22h11.19V6.78H3zm12.81 0v11.22h11.19V6.78H15.81zm-11.22 1.62h8.01v7.98H4.59V8.4zm12.81 0h8.01v7.98H17.4V8.4zm-11.19 1.59v4.8h4.8V9.99H6.21zm12.78 0v4.8h4.8V9.99H18.99zM3 19.59v11.19h11.19V19.59H3zm17.61 0v3.21h3.18v-1.62h-1.59v-1.59h-1.59zm0 3.21H15.81v3.18h1.59v1.62h-1.59v1.59h1.59v1.59h3.21V25.98h-1.62v-1.59h1.62v-1.59zm-16.02 -1.62h8.01v8.01H4.59V21.18zm1.62 1.62v4.8h4.8V22.8H6.21zm19.2 0v1.59h-1.62v4.8h-1.59v1.59h3.21v-1.59h1.59V22.8h-1.59z"/>
</svg>
