<svg width="24px" height="24px" viewBox="0 0 0.6 0.6" xmlns="http://www.w3.org/2000/svg">
    <path d="M0.33 0.36H0.27v-0.004c0 -0.026 0.009 -0.045 0.03 -0.056 0.012 -0.006 0.03 -0.017 0.03 -0.03a0.03 0.03 0 0 0 -0.06 0H0.21c0 -0.05 0.04 -0.09 0.09 -0.09s0.09 0.03 0.09 0.09 -0.06 0.065 -0.06 0.09zm-0.06 0.09h0.06v-0.06H0.27v0.06z" fill="#5C5F62"/>
    <path d="M0.3 0.12a0.18 0.18 0 1 0 0 0.36 0.18 0.18 0 0 0 0 -0.36zm-0.24 0.18a0.24 0.24 0 1 1 0.48 0 0.24 0.24 0 0 1 -0.48 0z" fill="#5C5F62"/>
</svg>
