<svg version="1.1" id="Capa_1" xmlns="http://www.w3.org/2000/svg" xmlns:xlink="http://www.w3.org/1999/xlink" x="0px" y="0px" viewBox="0 0 24 24" style="enable-background:new 0 0 372.372 372.372;" xml:space="preserve" width="24" height="24">
  <g>
    <path d="M23.764 14.175c-0.325 -0.577 -0.939 -0.935 -1.601 -0.935 -0.313 0 -0.624 0.082 -0.899 0.237l-5.351 3.014a0.29 0.29 0 0 0 -0.139 0.184c-0.093 0.381 -0.313 0.913 -0.829 1.283 -0.571 0.41 -1.344 0.495 -2.286 0.254a0.3 0.3 0 0 1 -0.016 -0.005L9.555 17.247a0.355 0.355 0 0 1 -0.233 -0.444 0.353 0.353 0 0 1 0.338 -0.25c0.035 0 0.071 0.005 0.105 0.016l3.071 0.953c0.005 0.001 0.01 0.003 0.015 0.004 0.724 0.183 1.29 0.132 1.679 -0.147 0.492 -0.353 0.579 -0.974 0.589 -1.065a0.13 0.13 0 0 0 0.001 -0.009l0 -0.003 0 -0.003 0 -0.002c0.059 -0.766 -0.435 -1.472 -1.176 -1.681l-0.014 -0.004c-0.023 -0.007 -2.294 -0.749 -3.742 -1.162 -0.161 -0.046 -0.604 -0.152 -1.245 -0.152 -0.896 0 -2.233 0.212 -3.516 1.226L0.108 18.83a0.29 0.29 0 0 0 -0.049 0.401l2.882 3.807a0.291 0.291 0 0 0 0.231 0.115c0.064 0 0.126 -0.021 0.177 -0.06l3.712 -2.858c0.083 -0.064 0.195 -0.088 0.298 -0.064l5.995 1.417c0.445 0.105 0.925 0.037 1.323 -0.187l8.389 -4.725c0.882 -0.497 1.195 -1.618 0.699 -2.5z"/>
      <path d="M20.43 0.848h-10.957c-0.356 0 -0.645 0.289 -0.645 0.645v2.933c0 0.356 0.289 0.645 0.645 0.645h0.241v6.228c0 0.356 0.289 0.645 0.645 0.645h9.186c0.356 0 0.645 -0.289 0.645 -0.645V5.07h0.241c0.356 0 0.645 -0.289 0.645 -0.645V1.492c0 -0.356 -0.289 -0.645 -0.644 -0.645zm-4.123 5.753h-2.712c-0.284 0 -0.516 -0.231 -0.516 -0.516s0.231 -0.516 0.516 -0.516h2.712c0.284 0 0.516 0.231 0.516 0.516s-0.231 0.516 -0.516 0.516zm3.478 -2.82h-9.668V2.137h9.668v1.644z"/>
  </g>
</svg>
