<svg fill="#000000" height="24px" width="24px" version="1.1" xmlns="http://www.w3.org/2000/svg" xmlns:xlink="http://www.w3.org/1999/xlink" viewBox="0 0 0.72 0.72" enable-background="new 0 0 24 24" xml:space="preserve">
  <g id="task">
    <path d="M0.12 0.702 0.009 0.591l0.042 -0.042L0.12 0.618l0.129 -0.129 0.042 0.042L0.12 0.702zM0.72 0.63H0.36v-0.06h0.36v0.06zM0.12 0.462 0.009 0.351l0.042 -0.042L0.12 0.378l0.129 -0.129 0.042 0.042L0.12 0.462zM0.72 0.39H0.36v-0.06h0.36v0.06zM0.12 0.222 0.009 0.111l0.042 -0.042L0.12 0.138 0.249 0.009l0.042 0.042L0.12 0.222zM0.72 0.15H0.36V0.09h0.36v0.06z"/>
  </g>
</svg>
