<svg fill="#000000" width="24px" height="24px" viewBox="0 0 0.72 0.72" xmlns="http://www.w3.org/2000/svg">
    <path d="M0.63 0.06H0.09a0.03 0.03 0 0 0 -0.03 0.03v0.54a0.03 0.03 0 0 0 0.03 0.03h0.54a0.03 0.03 0 0 0 0.03 -0.03V0.09a0.03 0.03 0 0 0 -0.03 -0.03Zm-0.098 0.262a0.108 0.108 0 0 1 -0.01 0.001A0.107 0.107 0 0 1 0.432 0.274v0.165a0.122 0.122 0 1 1 -0.122 -0.122c0.003 0 0.005 0 0.008 0v0.06a0.062 0.062 0 1 0 -0.008 0.124 0.064 0.064 0 0 0 0.065 -0.061l0.001 -0.28h0.057A0.107 0.107 0 0 0 0.532 0.255Z"/>
</svg>
