<svg fill="#000000" width="24px" height="24px" viewBox="-0.09 -0.06 0.72 0.72" xmlns="http://www.w3.org/2000/svg" preserveAspectRatio="xMinYMin" class="jam jam-trash">
    <path d="M0.18 0.06V0.03a0.03 0.03 0 0 1 0.03 -0.03h0.12a0.03 0.03 0 0 1 0.03 0.03v0.03h0.12a0.06 0.06 0 0 1 0.06 0.06v0.03a0.06 0.06 0 0 1 -0.06 0.06h-0.004l-0.02 0.306a0.09 0.09 0 0 1 -0.09 0.084H0.175a0.09 0.09 0 0 1 -0.09 -0.084L0.064 0.21H0.06a0.06 0.06 0 0 1 -0.06 -0.06V0.12a0.06 0.06 0 0 1 0.06 -0.06h0.12zm0.3 0.06H0.06v0.03h0.42V0.12zM0.124 0.21l0.021 0.302a0.03 0.03 0 0 0 0.03 0.028h0.191a0.03 0.03 0 0 0 0.03 -0.028L0.416 0.21h-0.292zM0.21 0.24a0.03 0.03 0 0 1 0.03 0.03v0.21a0.03 0.03 0 0 1 -0.06 0V0.27a0.03 0.03 0 0 1 0.03 -0.03zm0.12 0a0.03 0.03 0 0 1 0.03 0.03v0.21a0.03 0.03 0 0 1 -0.06 0V0.27a0.03 0.03 0 0 1 0.03 -0.03z"/>
</svg>
