<svg width="24px" height="24px" viewBox="0 0 0.72 0.72" version="1.1" xmlns="http://www.w3.org/2000/svg" xmlns:xlink="http://www.w3.org/1999/xlink">
    <title>transfer_line</title>
    <g id="页面-1" stroke="none" stroke-width="1" fill="none" fill-rule="evenodd">
        <g id="Arrow" transform="translate(-912)" fill-rule="nonzero">
            <g id="transfer_line" transform="translate(912)">
                <path d="M0.72 0v0.72H0V0h0.72ZM0.378 0.698l0 0 -0.002 0.001 -0.001 0 0 0 -0.002 -0.001c0 0 -0.001 0 -0.001 0l0 0 -0.001 0.013 0 0.001 0 0 0.003 0.002 0 0 0 0 0.003 -0.002 0 0 0 -0.001 -0.001 -0.013c0 0 0 -0.001 -0.001 -0.001Zm0.008 -0.003 0 0 -0.006 0.003 0 0 0 0 0.001 0.013 0 0 0 0 0.006 0.003c0 0 0.001 0 0.001 0l0 0 -0.001 -0.018c0 0 0 -0.001 -0.001 -0.001Zm-0.021 0a0.001 0.001 0 0 0 -0.001 0l0 0 -0.001 0.018c0 0 0 0.001 0.001 0.001l0 0 0.006 -0.003 0 0 0 0 0.001 -0.013 0 0 0 0 -0.006 -0.003Z" id="MingCute" fill-rule="nonzero"/>
                <path d="M0.6 0.42a0.03 0.03 0 0 1 0.004 0.06L0.6 0.48H0.192l0.069 0.069a0.03 0.03 0 0 1 -0.04 0.045l-0.003 -0.002 -0.115 -0.115c-0.02 -0.02 -0.007 -0.053 0.02 -0.056L0.127 0.42H0.6Zm-0.141 -0.291a0.03 0.03 0 0 1 0.04 -0.002l0.003 0.002 0.115 0.115c0.02 0.02 0.007 0.053 -0.02 0.056l-0.003 0H0.12a0.03 0.03 0 0 1 -0.004 -0.06L0.12 0.24h0.408l-0.069 -0.069a0.03 0.03 0 0 1 0 -0.042Z" id="形状" fill="#09244B"/>
            </g>
        </g>
    </g>
</svg>
