<svg width="24px" height="24px" viewBox="0 0 0.48 0.48" version="1.1" xmlns="http://www.w3.org/2000/svg" xmlns:xlink="http://www.w3.org/1999/xlink">
    <path fill="#444" d="M0.435 0.12H0.071a0.03 0.03 0 0 1 -0.036 -0.029v-0.001L0.42 0.075V0.039A0.035 0.035 0 0 0 0.381 0L0.039 0.056A0.06 0.06 0 0 0 0 0.112v0.323a0.045 0.045 0 0 0 0.045 0.045h0.39a0.045 0.045 0 0 0 0.045 -0.045v-0.27l0 -0.001a0.043 0.043 0 0 0 -0.043 -0.043l-0.002 0zM0.39 0.33a0.045 0.045 0 1 1 0 -0.09A0.045 0.045 0 0 1 0.39 0.33z"/>
</svg>
