<svg fill="#000000" width="24px" height="24px" viewBox="0 0 0.72 0.72" version="1.2" baseProfile="tiny" xmlns="http://www.w3.org/2000/svg">
    <path d="m0.635 0.462 -0.177 -0.296C0.434 0.128 0.399 0.105 0.36 0.105s-0.074 0.022 -0.098 0.061l-0.177 0.296c-0.024 0.039 -0.026 0.081 -0.007 0.115C0.097 0.611 0.134 0.63 0.18 0.63h0.36c0.046 0 0.083 -0.019 0.102 -0.053 0.019 -0.034 0.017 -0.076 -0.007 -0.115zM0.36 0.526c-0.026 0 -0.046 -0.021 -0.046 -0.046 0 -0.026 0.021 -0.047 0.046 -0.047s0.046 0.021 0.046 0.047c0 0.026 -0.021 0.046 -0.046 0.046zm0.049 -0.223c0 0.001 -0.042 0.104 -0.042 0.104 -0.001 0.003 -0.004 0.005 -0.007 0.005s-0.006 -0.002 -0.007 -0.005l-0.042 -0.103a0.053 0.053 0 0 1 -0.004 -0.02c0 -0.029 0.024 -0.052 0.052 -0.052a0.053 0.053 0 0 1 0.049 0.071z"/>
</svg>
